# xmcd
#
# Track frame offsets:
#	150
#	16610
#	35540
#	52290
#	68952
#	88357
#	106667
#	125352
#	142562
#	158950
#	177075
#	193503
#	212690
#	235453
#	254703
#	272190
#
# Disc length: 3892 seconds
#
# Revision: 2
# Processed by: cddbd v1.4PL0 Copyright (c) Steve Scherf et al.
# Submitted via: audiograbber 1.81.02
#
DISCID=e40f3210
DTITLE=Tina Turner - Simply The Best
DYEAR=1900
DGENRE=
TTITLE0=River Deep Mountain High
TTITLE1=It Takes Two
TTITLE2=Nutbush City Limits
TTITLE3=I Can't Stand The Rain
TTITLE4=I Don't Wanna Lose You
TTITLE5=Steamy Windows
TTITLE6=The Best
TTITLE7=What's Love Got To Do With It
TTITLE8=Let's Stay Together
TTITLE9=Private Dancer
TTITLE10=Better Be Good To Me
TTITLE11=We Don't Need Anather Hero
TTITLE12=Tropical Male
TTITLE13=What You Get Is What You See
TTITLE14=I Want You Near Me
TTITLE15=Way Of The World
EXTD=
EXTT0=
EXTT1=
EXTT2=
EXTT3=
EXTT4=
EXTT5=
EXTT6=
EXTT7=
EXTT8=
EXTT9=
EXTT10=
EXTT11=
EXTT12=
EXTT13=
EXTT14=
EXTT15=
PLAYORDER=
